<svg xmlns="http://www.w3.org/2000/svg" width="31.5" height="36" viewBox="0 0 31.5 36"><path d="M.844,13.5H30.656a.846.846,0,0,1,.844.844V32.625A3.376,3.376,0,0,1,28.125,36H3.375A3.376,3.376,0,0,1,0,32.625V14.344A.846.846,0,0,1,.844,13.5ZM31.5,10.406V7.875A3.376,3.376,0,0,0,28.125,4.5H24.75V.844A.846.846,0,0,0,23.906,0H21.094a.846.846,0,0,0-.844.844V4.5h-9V.844A.846.846,0,0,0,10.406,0H7.594A.846.846,0,0,0,6.75.844V4.5H3.375A3.376,3.376,0,0,0,0,7.875v2.531a.846.846,0,0,0,.844.844H30.656A.846.846,0,0,0,31.5,10.406Z" fill="#fff"/></svg>