<svg xmlns="http://www.w3.org/2000/svg" width="20" height="15" viewBox="0 0 20 15"><defs><style>.a{fill:gray;}</style></defs><path class="a" d="M19.621,9.453A.235.235,0,0,1,20,9.637v7.988A1.875,1.875,0,0,1,18.125,19.5H1.875A1.875,1.875,0,0,1,0,17.625V9.641a.234.234,0,0,1,.379-.184c.875.68,2.035,1.543,6.02,4.438.824.6,2.215,1.867,3.6,1.859,1.395.012,2.813-1.281,3.605-1.859C17.59,11,18.746,10.133,19.621,9.453ZM10,14.5c.906.016,2.211-1.141,2.867-1.617,5.184-3.762,5.578-4.09,6.773-5.027A.935.935,0,0,0,20,7.117V6.375A1.875,1.875,0,0,0,18.125,4.5H1.875A1.875,1.875,0,0,0,0,6.375v.742a.94.94,0,0,0,.359.738c1.2.934,1.59,1.266,6.773,5.027C7.789,13.359,9.094,14.516,10,14.5Z" transform="translate(0 -4.5)"/></svg>