<svg xmlns="http://www.w3.org/2000/svg" width="20" height="20.561" viewBox="0 0 20 20.561"><path d="M21.047,14.288a7.088,7.088,0,0,0,0-2.015l2.169-1.7a.519.519,0,0,0,.123-.658L21.283,6.362a.517.517,0,0,0-.627-.226L18.1,7.164a7.511,7.511,0,0,0-1.737-1.007l-.391-2.724a.5.5,0,0,0-.5-.432H11.352a.5.5,0,0,0-.5.432l-.391,2.724A7.9,7.9,0,0,0,8.72,7.164L6.16,6.136a.5.5,0,0,0-.627.226L3.477,9.919a.507.507,0,0,0,.123.658l2.169,1.7A8.153,8.153,0,0,0,5.7,13.281a8.153,8.153,0,0,0,.072,1.007L3.6,15.984a.519.519,0,0,0-.123.658L5.533,20.2a.517.517,0,0,0,.627.226L8.72,19.4A7.511,7.511,0,0,0,10.458,20.4l.391,2.724a.5.5,0,0,0,.5.432h4.112a.5.5,0,0,0,.5-.432l.391-2.724A7.9,7.9,0,0,0,18.1,19.4l2.56,1.028a.5.5,0,0,0,.627-.226l2.056-3.557a.519.519,0,0,0-.123-.658l-2.169-1.7Zm-7.638,2.591a3.6,3.6,0,1,1,3.6-3.6A3.6,3.6,0,0,1,13.408,16.879Z" transform="translate(-3.406 -3)"/></svg>